# xmcd CD database file
#
# Track frame offsets:
#	150
#	25887
#	52787
#	79537
#	101887
#	127250
#	141000
#	165412
#	192887
#	223500
#	253012
#	279600
#
# Disc length: 4019 seconds
#
# Revision: 0
# Processed by: cddbd v1.5.2PL0 Copyright (c) Steve Scherf et al.
# Submitted via: CDex 1.70beta2
#
DISCID=a60fb10c
DTITLE=NAOYA MATSUOKA - HEART&LOVE
DYEAR=1994
DGENRE=Jazz
TTITLE0=永遠の想いをのせて
TTITLE1=PRISONER　OF　LOVE(Edit Version)
TTITLE2=A　FAREWELL　TO　THE　SEASHORE　午後の水平線
TTITLE3=あの日の夏を
TTITLE4=A　LONELY　SEA BIRD
TTITLE5=暖かさも一代きりなんて
TTITLE6=EARLY　RISING　GIRL
TTITLE7=THE SEPTEMBER WIND（You're Romantic)九月の風～通りすぎた夏～
TTITLE8=LADY　IN　THE　SHADE(Orchestra Version)
TTITLE9=ALONE（IN THE　STADIUM)
TTITLE10=ANDALSIA（Alternate Mix）
TTITLE11=THE　STRIKER～勝利のストライカー～
EXTD=YEAR: 1994
EXTT0=
EXTT1=
EXTT2=
EXTT3=
EXTT4=
EXTT5=
EXTT6=
EXTT7=
EXTT8=
EXTT9=
EXTT10=
EXTT11=
PLAYORDER=
